ply
format ascii 1.0
comment Written by Yocto/GL
comment https://github.com/xelatihy/yocto-gl
element instance 121
property float xx
property float xy
property float xz
property float yx
property float yy
property float yz
property float zx
property float zy
property float zz
property float ox
property float oy
property float oz
end_header
1 0 0 0 1 0 0 0 1 -1.0 0 -1.0
1 0 0 0 1 0 0 0 1 -0.8 0 -1.0
1 0 0 0 1 0 0 0 1 -0.6000000000000001 0 -1.0
1 0 0 0 1 0 0 0 1 -0.4 0 -1.0
1 0 0 0 1 0 0 0 1 -0.2 0 -1.0
1 0 0 0 1 0 0 0 1 0.0 0 -1.0
1 0 0 0 1 0 0 0 1 0.2 0 -1.0
1 0 0 0 1 0 0 0 1 0.4 0 -1.0
1 0 0 0 1 0 0 0 1 0.6000000000000001 0 -1.0
1 0 0 0 1 0 0 0 1 0.8 0 -1.0
1 0 0 0 1 0 0 0 1 1.0 0 -1.0
1 0 0 0 1 0 0 0 1 -1.0 0 -0.8
1 0 0 0 1 0 0 0 1 -0.8 0 -0.8
1 0 0 0 1 0 0 0 1 -0.6000000000000001 0 -0.8
1 0 0 0 1 0 0 0 1 -0.4 0 -0.8
1 0 0 0 1 0 0 0 1 -0.2 0 -0.8
1 0 0 0 1 0 0 0 1 0.0 0 -0.8
1 0 0 0 1 0 0 0 1 0.2 0 -0.8
1 0 0 0 1 0 0 0 1 0.4 0 -0.8
1 0 0 0 1 0 0 0 1 0.6000000000000001 0 -0.8
1 0 0 0 1 0 0 0 1 0.8 0 -0.8
1 0 0 0 1 0 0 0 1 1.0 0 -0.8
1 0 0 0 1 0 0 0 1 -1.0 0 -0.6000000000000001
1 0 0 0 1 0 0 0 1 -0.8 0 -0.6000000000000001
1 0 0 0 1 0 0 0 1 -0.6000000000000001 0 -0.6000000000000001
1 0 0 0 1 0 0 0 1 -0.4 0 -0.6000000000000001
1 0 0 0 1 0 0 0 1 -0.2 0 -0.6000000000000001
1 0 0 0 1 0 0 0 1 0.0 0 -0.6000000000000001
1 0 0 0 1 0 0 0 1 0.2 0 -0.6000000000000001
1 0 0 0 1 0 0 0 1 0.4 0 -0.6000000000000001
1 0 0 0 1 0 0 0 1 0.6000000000000001 0 -0.6000000000000001
1 0 0 0 1 0 0 0 1 0.8 0 -0.6000000000000001
1 0 0 0 1 0 0 0 1 1.0 0 -0.6000000000000001
1 0 0 0 1 0 0 0 1 -1.0 0 -0.4
1 0 0 0 1 0 0 0 1 -0.8 0 -0.4
1 0 0 0 1 0 0 0 1 -0.6000000000000001 0 -0.4
1 0 0 0 1 0 0 0 1 -0.4 0 -0.4
1 0 0 0 1 0 0 0 1 -0.2 0 -0.4
1 0 0 0 1 0 0 0 1 0.0 0 -0.4
1 0 0 0 1 0 0 0 1 0.2 0 -0.4
1 0 0 0 1 0 0 0 1 0.4 0 -0.4
1 0 0 0 1 0 0 0 1 0.6000000000000001 0 -0.4
1 0 0 0 1 0 0 0 1 0.8 0 -0.4
1 0 0 0 1 0 0 0 1 1.0 0 -0.4
1 0 0 0 1 0 0 0 1 -1.0 0 -0.2
1 0 0 0 1 0 0 0 1 -0.8 0 -0.2
1 0 0 0 1 0 0 0 1 -0.6000000000000001 0 -0.2
1 0 0 0 1 0 0 0 1 -0.4 0 -0.2
1 0 0 0 1 0 0 0 1 -0.2 0 -0.2
1 0 0 0 1 0 0 0 1 0.0 0 -0.2
1 0 0 0 1 0 0 0 1 0.2 0 -0.2
1 0 0 0 1 0 0 0 1 0.4 0 -0.2
1 0 0 0 1 0 0 0 1 0.6000000000000001 0 -0.2
1 0 0 0 1 0 0 0 1 0.8 0 -0.2
1 0 0 0 1 0 0 0 1 1.0 0 -0.2
1 0 0 0 1 0 0 0 1 -1.0 0 0.0
1 0 0 0 1 0 0 0 1 -0.8 0 0.0
1 0 0 0 1 0 0 0 1 -0.6000000000000001 0 0.0
1 0 0 0 1 0 0 0 1 -0.4 0 0.0
1 0 0 0 1 0 0 0 1 -0.2 0 0.0
1 0 0 0 1 0 0 0 1 0.0 0 0.0
1 0 0 0 1 0 0 0 1 0.2 0 0.0
1 0 0 0 1 0 0 0 1 0.4 0 0.0
1 0 0 0 1 0 0 0 1 0.6000000000000001 0 0.0
1 0 0 0 1 0 0 0 1 0.8 0 0.0
1 0 0 0 1 0 0 0 1 1.0 0 0.0
1 0 0 0 1 0 0 0 1 -1.0 0 0.2
1 0 0 0 1 0 0 0 1 -0.8 0 0.2
1 0 0 0 1 0 0 0 1 -0.6000000000000001 0 0.2
1 0 0 0 1 0 0 0 1 -0.4 0 0.2
1 0 0 0 1 0 0 0 1 -0.2 0 0.2
1 0 0 0 1 0 0 0 1 0.0 0 0.2
1 0 0 0 1 0 0 0 1 0.2 0 0.2
1 0 0 0 1 0 0 0 1 0.4 0 0.2
1 0 0 0 1 0 0 0 1 0.6000000000000001 0 0.2
1 0 0 0 1 0 0 0 1 0.8 0 0.2
1 0 0 0 1 0 0 0 1 1.0 0 0.2
1 0 0 0 1 0 0 0 1 -1.0 0 0.4
1 0 0 0 1 0 0 0 1 -0.8 0 0.4
1 0 0 0 1 0 0 0 1 -0.6000000000000001 0 0.4
1 0 0 0 1 0 0 0 1 -0.4 0 0.4
1 0 0 0 1 0 0 0 1 -0.2 0 0.4
1 0 0 0 1 0 0 0 1 0.0 0 0.4
1 0 0 0 1 0 0 0 1 0.2 0 0.4
1 0 0 0 1 0 0 0 1 0.4 0 0.4
1 0 0 0 1 0 0 0 1 0.6000000000000001 0 0.4
1 0 0 0 1 0 0 0 1 0.8 0 0.4
1 0 0 0 1 0 0 0 1 1.0 0 0.4
1 0 0 0 1 0 0 0 1 -1.0 0 0.6000000000000001
1 0 0 0 1 0 0 0 1 -0.8 0 0.6000000000000001
1 0 0 0 1 0 0 0 1 -0.6000000000000001 0 0.6000000000000001
1 0 0 0 1 0 0 0 1 -0.4 0 0.6000000000000001
1 0 0 0 1 0 0 0 1 -0.2 0 0.6000000000000001
1 0 0 0 1 0 0 0 1 0.0 0 0.6000000000000001
1 0 0 0 1 0 0 0 1 0.2 0 0.6000000000000001
1 0 0 0 1 0 0 0 1 0.4 0 0.6000000000000001
1 0 0 0 1 0 0 0 1 0.6000000000000001 0 0.6000000000000001
1 0 0 0 1 0 0 0 1 0.8 0 0.6000000000000001
1 0 0 0 1 0 0 0 1 1.0 0 0.6000000000000001
1 0 0 0 1 0 0 0 1 -1.0 0 0.8
1 0 0 0 1 0 0 0 1 -0.8 0 0.8
1 0 0 0 1 0 0 0 1 -0.6000000000000001 0 0.8
1 0 0 0 1 0 0 0 1 -0.4 0 0.8
1 0 0 0 1 0 0 0 1 -0.2 0 0.8
1 0 0 0 1 0 0 0 1 0.0 0 0.8
1 0 0 0 1 0 0 0 1 0.2 0 0.8
1 0 0 0 1 0 0 0 1 0.4 0 0.8
1 0 0 0 1 0 0 0 1 0.6000000000000001 0 0.8
1 0 0 0 1 0 0 0 1 0.8 0 0.8
1 0 0 0 1 0 0 0 1 1.0 0 0.8
1 0 0 0 1 0 0 0 1 -1.0 0 1.0
1 0 0 0 1 0 0 0 1 -0.8 0 1.0
1 0 0 0 1 0 0 0 1 -0.6000000000000001 0 1.0
1 0 0 0 1 0 0 0 1 -0.4 0 1.0
1 0 0 0 1 0 0 0 1 -0.2 0 1.0
1 0 0 0 1 0 0 0 1 0.0 0 1.0
1 0 0 0 1 0 0 0 1 0.2 0 1.0
1 0 0 0 1 0 0 0 1 0.4 0 1.0
1 0 0 0 1 0 0 0 1 0.6000000000000001 0 1.0
1 0 0 0 1 0 0 0 1 0.8 0 1.0
1 0 0 0 1 0 0 0 1 1.0 0 1.0
